<?xml version="1.0" encoding="UTF-8"?>
<!DOCTYPE svg PUBLIC "-//W3C//DTD SVG 1.1//EN" "http://www.w3.org/Graphics/SVG/1.1/DTD/svg11.dtd">
<!-- Creator: CorelDRAW 2020 (64-Bit) -->
<svg xmlns="http://www.w3.org/2000/svg" xml:space="preserve" width="0.213331in" height="0.213331in" version="1.1" style="shape-rendering:geometricPrecision; text-rendering:geometricPrecision; image-rendering:optimizeQuality; fill-rule:evenodd; clip-rule:evenodd"
viewBox="0 0 213.33 213.33"
 xmlns:xlink="http://www.w3.org/1999/xlink"
 xmlns:xodm="http://www.corel.com/coreldraw/odm/2003">
 <defs>
  <style type="text/css">
   <![CDATA[
    .fil0 {fill:none}
    .fil1 {fill:#990000;fill-rule:nonzero}
   ]]>
  </style>
 </defs>
 <g id="Layer_x0020_1">
  <metadata id="CorelCorpID_0Corel-Layer"/>
  <rect class="fil0" x="-0" y="-0.01" width="213.33" height="213.33"/>
  <g id="_2030163492896">
   <path class="fil1" d="M114.4 116.5c1.37,0 2.72,0.7 4.18,2.09 4.07,3.91 7.77,7.15 11.29,9.89 3.24,2.54 4.7,5.74 4.59,10.06 -0.15,5.71 -0.14,11.97 0.02,19.14 0.07,2.86 1.2,4.76 3.39,5.64 1.8,0.73 4.41,1.18 6.63,-0.84 1.88,-1.71 2.69,-4.14 2.7,-8.12 0,-2.87 -0,-5.74 -0.01,-8.61 -0.02,-5.35 -0.04,-10.89 0.05,-16.34 0.08,-4.7 -1.59,-8.39 -5.25,-11.6 -1.44,-1.26 -2.88,-2.57 -4.27,-3.83 -2.57,-2.33 -5.23,-4.74 -7.95,-6.94 -1.13,-0.91 -2.43,-2.19 -2.5,-4 -0.07,-1.8 1.13,-3.19 2.2,-4.19 2.87,-2.72 5.74,-5.54 8.52,-8.26 3.18,-3.12 6.46,-6.35 9.78,-9.45 4.77,-4.47 6.49,-8.61 5.75,-13.84 -0.52,-3.69 -5.04,-8.95 -8.56,-8.96 -22.61,-0.09 -42.61,-0.09 -61.13,0.01 -2.67,0.01 -5.02,0.88 -6.46,2.39 -0.97,1.02 -1.45,2.27 -1.39,3.6 0.14,3.08 3.31,5.08 8.08,5.1 7.71,0.02 15.55,0.02 23.13,0.01 3.22,0 6.44,-0 9.67,-0l1.15 0 3.46 4.68 -1.6 1.38c-1.09,0.95 -2.22,1.89 -3.31,2.8 -2.39,1.99 -4.86,4.05 -7.07,6.23 -5.53,5.45 -7.35,9.7 -6.06,14.21 2.12,7.46 -2.03,11.37 -5.69,14.81l-0.22 0.21c-10.15,9.56 -21.94,20.71 -33.41,32.06 -1.81,1.79 -2.74,3.69 -2.7,5.48 0.04,1.49 0.76,2.92 2.11,4.13 1.89,1.7 4.64,3.09 9.26,-1.29 3.78,-3.58 7.57,-7.15 11.35,-10.73 8.52,-8.05 17.34,-16.37 25.91,-24.65 1.55,-1.5 2.97,-2.25 4.39,-2.25zm26.36 52c-1.5,0 -3.05,-0.31 -4.61,-0.94 -3.91,-1.59 -6.12,-5.06 -6.22,-9.76 -0.17,-7.24 -0.17,-13.58 -0.02,-19.36 0.07,-2.91 -0.72,-4.7 -2.84,-6.35 -3.64,-2.85 -7.44,-6.18 -11.63,-10.2 -0.62,-0.59 -0.93,-0.76 -1.04,-0.8 -0.12,0.04 -0.47,0.23 -1.21,0.94 -8.59,8.3 -17.41,16.63 -25.95,24.69 -3.79,3.57 -7.57,7.15 -11.35,10.72 -7.2,6.83 -12.77,3.78 -15.45,1.37 -2.3,-2.07 -3.54,-4.64 -3.61,-7.41 -0.07,-3.07 1.33,-6.13 4.06,-8.82 11.5,-11.38 23.31,-22.55 33.49,-32.13l0.22 -0.21c3.61,-3.4 5.79,-5.45 4.43,-10.25 -2.28,-8 2.68,-14.2 7.25,-18.7 2.34,-2.31 4.89,-4.43 7.35,-6.48 0.31,-0.26 0.63,-0.53 0.95,-0.8 -2.46,0 -4.93,0 -7.39,0.01 -7.59,0 -15.43,0.01 -23.15,-0.02 -7.29,-0.02 -12.36,-3.82 -12.62,-9.44 -0.12,-2.57 0.82,-5.03 2.64,-6.95 2.31,-2.43 5.77,-3.78 9.73,-3.81 18.54,-0.09 38.55,-0.09 61.18,-0 2.86,0.01 5.91,1.59 8.59,4.43 2.4,2.55 4.07,5.71 4.46,8.46 0.96,6.79 -1.24,12.28 -7.15,17.8 -3.28,3.07 -6.54,6.28 -9.7,9.38 -2.8,2.74 -5.69,5.57 -8.58,8.32 -0.35,0.33 -0.55,0.56 -0.66,0.71 0.12,0.14 0.33,0.35 0.69,0.64 2.82,2.28 5.53,4.73 8.15,7.11 1.38,1.25 2.8,2.54 4.21,3.78 4.68,4.1 6.9,9.04 6.8,15.1 -0.09,5.41 -0.07,10.92 -0.05,16.25 0.01,2.88 0.02,5.75 0.01,8.63 -0.01,3.58 -0.49,8.12 -4.19,11.48 -1.92,1.74 -4.27,2.64 -6.8,2.64z"/>
   <path class="fil1" d="M151.73 48.21c-0.02,5.48 4.74,10.59 9.98,10.72 2.5,0.06 5.06,-1 7.04,-2.9 2.08,-1.99 3.3,-4.67 3.34,-7.35 0.1,-5.52 -4.62,-10.52 -10.11,-10.7 -2.47,-0.08 -5.01,0.96 -6.98,2.87 -2.07,2 -3.27,4.68 -3.28,7.36l0 0zm10.19 15.28c-0.11,0 -0.21,0 -0.32,-0 -7.72,-0.19 -14.46,-7.33 -14.43,-15.29l0 0c0.02,-3.91 1.72,-7.78 4.67,-10.63 2.85,-2.75 6.59,-4.26 10.3,-4.14 8.01,0.27 14.66,7.29 14.51,15.33 -0.07,3.88 -1.8,7.73 -4.75,10.56 -2.78,2.66 -6.4,4.17 -9.98,4.17z"/>
   <path class="fil1" d="M41.17 148.81l0 0zm29.3 14.89l0 0zm-28.95 -15.32c0.25,0.21 0.53,0.45 0.8,0.74 3.11,3.46 6.32,6.94 9.43,10.32 2.78,3.02 5.65,6.14 8.45,9.24 2.36,2.61 5.04,5.57 6.15,5.58 0,0 0,0 0,0 1.08,0 3.6,-2.71 6.27,-5.59 0.51,-0.55 0.67,-0.87 0.71,-0.99 -0.15,-0.23 -0.61,-0.65 -0.91,-0.91 -0.69,-0.63 -1.47,-1.33 -1.96,-2.34 -0.1,-0.22 -0.2,-0.39 -0.28,-0.5 -0.11,0.11 -0.26,0.28 -0.44,0.52 -0.41,0.56 -1.66,2.25 -3.7,2.34 -2.08,0.09 -3.49,-1.48 -4.61,-2.75 -3.76,-4.23 -7.67,-8.47 -11.44,-12.57 -1.49,-1.63 -2.99,-3.25 -4.48,-4.88 -0.43,-0.47 -0.86,-0.94 -1.52,-1.67 -0.77,1.22 -1.53,2.38 -2.48,3.46zm24.83 30.44c-0.01,0 -0.02,0 -0.04,0 -3.11,-0.02 -5.52,-2.68 -9.5,-7.09 -2.79,-3.08 -5.65,-6.2 -8.43,-9.2 -3.11,-3.38 -6.33,-6.88 -9.46,-10.36 -0.06,-0.07 -0.23,-0.21 -0.36,-0.32 -0.67,-0.57 -1.79,-1.52 -1.9,-3.13 -0.07,-1.09 0.37,-2.17 1.3,-3.2 0.9,-1 1.68,-2.24 2.51,-3.56 0.41,-0.66 0.84,-1.34 1.31,-2.04l1.62 -2.41 3.79 4.17c0.74,0.82 1.2,1.33 1.67,1.83 1.49,1.63 2.98,3.25 4.47,4.87 3.79,4.11 7.7,8.37 11.49,12.63 0.24,0.27 0.67,0.75 0.99,1.04 0.07,-0.08 0.15,-0.18 0.25,-0.31 1.7,-2.3 3.43,-2.66 4.57,-2.55 1.13,0.11 2.74,0.76 3.93,3.27 0.1,0.2 0.58,0.64 0.91,0.93 0.98,0.89 2.33,2.11 2.41,4.07 0.06,1.43 -0.57,2.84 -1.94,4.31 -4.21,4.54 -6.54,7.04 -9.6,7.04z"/>
   <path class="fil1" d="M129.12 171.44l0 0zm0.09 3.8c0.1,0.04 0.43,0.14 1.21,0.1 3.91,-0.19 7.86,-0.15 11.68,-0.1 1.59,0.02 3.19,0.04 4.78,0.04l0 0c3.38,0 6.77,0 10.15,0 4.08,0 7.29,0 7.94,-0.68 0.65,-0.67 0.54,-4.01 0.42,-7.88l-0.01 -0.31c-0.04,-1.11 -0.17,-1.57 -0.24,-1.73 -0.12,-0.02 -0.39,-0.03 -0.88,0.06 -0.94,0.18 -1.91,0.07 -2.77,-0.01 -0.4,-0.04 -1.02,-0.11 -1.38,-0.08 -0.03,0.17 -0.06,0.47 -0.03,0.96 0.11,1.9 -0.3,3.31 -1.26,4.32 -1.43,1.5 -3.4,1.48 -5.15,1.46l-0.17 0c-2.97,-0.02 -6.01,-0.01 -8.94,0 -4.66,0.02 -9.48,0.04 -14.23,-0.08 -0.75,-0.02 -1.08,0.07 -1.19,0.11 -0.05,0.13 -0.15,0.52 -0.14,1.61 0.01,0.75 0.03,1.86 0.19,2.21zm0.89 4.66c-1.74,0 -3.06,-0.44 -4.02,-1.33 -1.56,-1.46 -1.59,-3.59 -1.61,-5.47 -0.03,-1.77 0.13,-3.6 1.48,-4.93 1.02,-1.01 2.5,-1.47 4.52,-1.42 4.69,0.12 9.46,0.1 14.09,0.08 2.94,-0.01 5.99,-0.02 8.99,0l0.17 0c0.57,0 1.41,0.01 1.78,-0.08 0.03,-0.13 0.06,-0.41 0.04,-0.88 -0.12,-2.07 0.33,-3.58 1.39,-4.59 1.52,-1.44 3.55,-1.24 5.04,-1.08 0.55,0.06 1.17,0.12 1.46,0.07 1.93,-0.36 3.43,-0.09 4.57,0.83 1.61,1.29 1.88,3.44 1.93,5.16l0.01 0.31c0.2,6.09 0.3,9.14 -1.7,11.2 -2,2.06 -5.08,2.06 -11.21,2.06 -3.39,0 -6.78,0 -10.17,-0l0 0c-1.61,0 -3.22,-0.02 -4.83,-0.04 -3.76,-0.04 -7.64,-0.09 -11.41,0.09 -0.18,0.01 -0.36,0.01 -0.54,0.01z"/>
  </g>
 </g>
</svg>
