<?xml version="1.0" encoding="UTF-8"?>
<!DOCTYPE svg PUBLIC "-//W3C//DTD SVG 1.1//EN" "http://www.w3.org/Graphics/SVG/1.1/DTD/svg11.dtd">
<!-- Creator: CorelDRAW 2020 (64-Bit) -->
<svg xmlns="http://www.w3.org/2000/svg" xml:space="preserve" width="0.213331in" height="0.213331in" version="1.1" style="shape-rendering:geometricPrecision; text-rendering:geometricPrecision; image-rendering:optimizeQuality; fill-rule:evenodd; clip-rule:evenodd"
viewBox="0 0 213.33 213.33"
 xmlns:xlink="http://www.w3.org/1999/xlink"
 xmlns:xodm="http://www.corel.com/coreldraw/odm/2003">
 <defs>
  <style type="text/css">
   <![CDATA[
    .str0 {stroke:#990000;stroke-width:4;stroke-miterlimit:10}
    .str1 {stroke:#990000;stroke-width:4;stroke-miterlimit:10}
    .fil0 {fill:none}
    .fil1 {fill:none;fill-rule:nonzero}
   ]]>
  </style>
 </defs>
 <g id="Layer_x0020_1">
  <metadata id="CorelCorpID_0Corel-Layer"/>
  <rect class="fil0" x="-0" y="-0.01" width="213.33" height="213.33"/>
  <g id="_1383123951056">
   <path class="fil1 str0" d="M81.63 130.46l-1.76 0.1c-1.62,0.09 -3.3,0.3 -4.99,0.6l-3.98 0.71 0 48.13 72.49 0 0 -47.84 -3.86 -0.8c-1.92,-0.4 -3.84,-0.66 -5.72,-0.78l-1.78 -0.12 -1.43 1.06c-7.06,5.25 -15.28,8.03 -23.77,8.03 -8.5,0 -16.73,-2.78 -23.8,-8.05l-1.41 -1.06 0 0z"/>
   <path class="fil1 str0" d="M64.68 133.18l-7.72 5.73c-10.87,8.07 -17.35,20.9 -17.35,34.32 0,0.72 0.02,1.46 0.06,2.19l0.24 4.59 24.78 0 0 -46.83z"/>
   <path class="fil1 str0" d="M149.6 133.52l0 46.48 23.83 0 0.24 -4.59c0.04,-0.72 0.06,-1.46 0.06,-2.19 0,-13.09 -5.93,-25.31 -16.28,-33.5l-7.83 -6.2 0 0z"/>
   <path class="fil1 str0" d="M148.2 84.45l-6.08 1.08c-11.2,1.99 -23.07,3 -35.29,3 -12.21,0 -24.08,-1.01 -35.28,-3l-6.07 -1.08 0.41 6.16c0.8,12.15 5.31,23.46 12.69,31.85 7.65,8.69 17.69,13.48 28.26,13.48 10.58,0 20.61,-4.79 28.27,-13.48 7.38,-8.39 11.89,-19.7 12.69,-31.85l0.41 -6.16 0 0z"/>
   <path class="fil1 str1" d="M111.81 33.33l-10.28 0c-3.67,0 -6.95,2.2 -8.35,5.61l-0.59 1.43 0.01 0.05 -0.95 0.46c-12.18,5.8 -21.35,18.4 -24.6,33.46 -4.18,0.59 -7.41,4.19 -7.41,8.54 0,0.93 0.17,1.88 0.49,2.81l0.88 2.54 2.63 0.59c13.5,3.02 28.03,4.55 43.19,4.55 15.03,0 29.44,-1.5 42.83,-4.46l2.56 -0.57 0.92 -2.46c0.37,-0.98 0.56,-2 0.56,-3 0,-4.22 -3.05,-7.74 -7.06,-8.48 -3.26,-15.22 -12.54,-27.91 -24.88,-33.66l-1.13 -0.53 -0.36 -0.97c-1.31,-3.54 -4.71,-5.91 -8.46,-5.91l0 0z"/>
  </g>
 </g>
</svg>
