<?xml version="1.0" encoding="UTF-8"?>
<!DOCTYPE svg PUBLIC "-//W3C//DTD SVG 1.1//EN" "http://www.w3.org/Graphics/SVG/1.1/DTD/svg11.dtd">
<!-- Creator: CorelDRAW 2020 (64-Bit) -->
<svg xmlns="http://www.w3.org/2000/svg" xml:space="preserve" width="0.213331in" height="0.213331in" version="1.1" style="shape-rendering:geometricPrecision; text-rendering:geometricPrecision; image-rendering:optimizeQuality; fill-rule:evenodd; clip-rule:evenodd"
viewBox="0 0 213.33 213.33"
 xmlns:xlink="http://www.w3.org/1999/xlink"
 xmlns:xodm="http://www.corel.com/coreldraw/odm/2003">
 <defs>
  <style type="text/css">
   <![CDATA[
    .fil0 {fill:none}
    .fil1 {fill:#990000;fill-rule:nonzero}
   ]]>
  </style>
 </defs>
 <g id="Layer_x0020_1">
  <metadata id="CorelCorpID_0Corel-Layer"/>
  <rect class="fil0" x="-0" y="-0.01" width="213.33" height="213.33"/>
  <path class="fil1" d="M78.72 135.37c-0.59,0 -1.18,-0.24 -1.61,-0.7l-5.04 -5.46c-0.39,-0.43 -0.6,-0.99 -0.58,-1.57 0.02,-0.58 0.28,-1.13 0.7,-1.52l4.23 -3.91c6.14,-5.67 9.46,-14.11 9.35,-23.78 0,-0.01 0,-0.02 0,-0.04l0.05 -9.83c0.01,-1.21 0.99,-2.19 2.2,-2.18 1.21,0.01 2.19,1 2.18,2.2l-0.06 9.81c0.11,10.92 -3.71,20.52 -10.76,27.04l-2.62 2.41 2.07 2.24 2.64 -2.43c7.04,-6.5 16.9,-9.55 27.74,-8.57l9.06 0.66c1.21,0.09 2.12,1.14 2.03,2.34 -0.09,1.21 -1.13,2.11 -2.34,2.03l-9.08 -0.66c-0.01,-0 -0.02,-0 -0.04,-0 -9.61,-0.87 -18.27,1.77 -24.4,7.43l-4.25 3.92c-0.42,0.39 -0.95,0.58 -1.48,0.58z"/>
  <path class="fil1" d="M71.97 129.54c-0.15,0 -0.41,0.04 -0.64,0.25l-28.11 25.94c-0.38,0.35 -0.41,0.95 -0.05,1.33l3.83 4.15 0 0c0.23,0.25 0.51,0.3 0.66,0.3 0.15,0.01 0.43,-0.02 0.68,-0.25l28.11 -25.94c0.38,-0.35 0.41,-0.95 0.05,-1.34l-3.83 -4.15c-0.23,-0.25 -0.51,-0.3 -0.66,-0.3 -0.01,0 -0.02,0 -0.04,0zm-24.28 36.37c-0.07,0 -0.15,-0 -0.22,-0 -1.42,-0.06 -2.74,-0.67 -3.7,-1.71l-3.83 -4.15c-1.99,-2.16 -1.86,-5.54 0.3,-7.53l28.11 -25.94c1.04,-0.97 2.41,-1.47 3.83,-1.41 1.42,0.06 2.74,0.66 3.7,1.71l3.83 4.15c0.97,1.05 1.47,2.41 1.41,3.83 -0.06,1.43 -0.67,2.74 -1.71,3.7l-28.11 25.94c-0.99,0.91 -2.26,1.41 -3.61,1.41z"/>
  <path class="fil1" d="M74.4 142.38c-0.59,0 -1.18,-0.24 -1.61,-0.7l-8.08 -8.76c-0.82,-0.89 -0.76,-2.28 0.12,-3.09 0.89,-0.82 2.28,-0.76 3.1,0.12l8.08 8.76c0.82,0.89 0.76,2.28 -0.12,3.09 -0.43,0.39 -0.96,0.58 -1.49,0.58z"/>
  <path class="fil1" d="M98.81 82.65c-0.59,0 -1.18,-0.24 -1.61,-0.71 -0.82,-0.89 -0.77,-2.28 0.12,-3.09l34.01 -31.39c0.89,-0.83 2.28,-0.77 3.09,0.12 0.82,0.89 0.77,2.28 -0.12,3.1l-34.01 31.39c-0.42,0.39 -0.95,0.59 -1.48,0.59z"/>
  <path class="fil1" d="M148.56 102.43c-0.59,0 -1.18,-0.24 -1.61,-0.7l-36.52 -39.57c-0.82,-0.89 -0.76,-2.27 0.13,-3.09 0.89,-0.83 2.28,-0.77 3.09,0.12l36.52 39.57c0.82,0.89 0.77,2.28 -0.13,3.1 -0.42,0.39 -0.95,0.58 -1.48,0.58z"/>
  <path class="fil1" d="M159.04 92.77c-0.59,0 -1.18,-0.24 -1.61,-0.7l-36.52 -39.56c-0.82,-0.89 -0.77,-2.28 0.12,-3.1 0.89,-0.82 2.28,-0.77 3.1,0.12l36.52 39.57c0.82,0.89 0.76,2.28 -0.13,3.1 -0.42,0.39 -0.95,0.58 -1.48,0.58z"/>
  <path class="fil1" d="M119 111.48c-0.59,0 -1.18,-0.24 -1.61,-0.71l-18.33 -19.85c-0.82,-0.89 -0.77,-2.28 0.12,-3.09 0.89,-0.83 2.28,-0.77 3.1,0.12l18.33 19.86c0.82,0.89 0.77,2.28 -0.12,3.1 -0.42,0.39 -0.96,0.58 -1.48,0.58z"/>
  <path class="fil1" d="M160.41 73.25c-0.59,0 -1.18,-0.23 -1.61,-0.7l-18.33 -19.86c-0.82,-0.89 -0.77,-2.27 0.12,-3.09 0.89,-0.83 2.28,-0.77 3.1,0.12l18.33 19.86c0.82,0.89 0.77,2.27 -0.12,3.1 -0.42,0.39 -0.96,0.58 -1.49,0.58z"/>
  <path class="fil1" d="M138.56 111.67c-0.59,0 -1.18,-0.24 -1.61,-0.7l-36.52 -39.56c-0.82,-0.89 -0.76,-2.28 0.13,-3.09 0.89,-0.82 2.28,-0.77 3.09,0.12l36.52 39.57c0.82,0.89 0.77,2.28 -0.12,3.1 -0.42,0.39 -0.96,0.58 -1.49,0.58z"/>
  <path class="fil1" d="M99.43 101.44c-0.59,0 -1.18,-0.24 -1.61,-0.7 -0.82,-0.89 -0.77,-2.28 0.12,-3.1l52.08 -48.07c0.89,-0.82 2.28,-0.76 3.09,0.13 0.82,0.89 0.77,2.27 -0.12,3.1l-52.08 48.07c-0.42,0.39 -0.95,0.58 -1.48,0.58z"/>
  <path class="fil1" d="M109.08 111.91c-0.59,0 -1.18,-0.24 -1.61,-0.7 -0.82,-0.89 -0.76,-2.28 0.13,-3.09l52.07 -48.07c0.89,-0.83 2.28,-0.77 3.1,0.12 0.82,0.89 0.76,2.28 -0.13,3.1l-52.07 48.07c-0.42,0.39 -0.95,0.58 -1.49,0.58z"/>
  <path class="fil1" d="M127.77 114.03c-0.59,0 -1.18,-0.24 -1.61,-0.71 -0.82,-0.89 -0.76,-2.28 0.13,-3.09l34.01 -31.39c0.89,-0.83 2.28,-0.77 3.09,0.12 0.82,0.89 0.77,2.28 -0.12,3.1l-34.01 31.39c-0.42,0.39 -0.96,0.58 -1.49,0.58z"/>
  <path class="fil1" d="M155.72 108l0 0 -0 0zm-16.83 -66.95c-0.83,0 -1.67,0.03 -2.52,0.08 -10.68,0.66 -21.33,5.43 -29.99,13.42 -8.66,8 -14.26,18.23 -15.78,28.83 -1.49,10.43 1.18,19.94 7.51,26.81 13.19,14.29 38.36,12.59 56.11,-3.8 17.75,-16.38 21.46,-41.34 8.26,-55.63 -5.82,-6.31 -14.13,-9.71 -23.61,-9.71zm-17.18 83.22c-10.71,0 -20.15,-3.89 -26.81,-11.11 -7.24,-7.85 -10.31,-18.65 -8.63,-30.4 1.66,-11.59 7.74,-22.75 17.14,-31.43 9.4,-8.67 21.01,-13.85 32.69,-14.57 11.85,-0.74 22.37,3.18 29.61,11.02 7.24,7.85 10.31,18.65 8.63,30.4 -1.65,11.59 -7.74,22.75 -17.14,31.43l0 0c-9.4,8.68 -21.01,13.85 -32.7,14.57 -0.94,0.06 -1.87,0.09 -2.8,0.09z"/>
  <path class="fil1" d="M97.05 140.7c-0.46,0 -0.92,-0.15 -1.3,-0.43l-5.99 -4.4c-0.98,-0.72 -1.19,-2.09 -0.47,-3.06l3.41 -4.64c0.72,-0.98 2.09,-1.19 3.06,-0.47 0.98,0.72 1.19,2.09 0.47,3.06l-2.11 2.87 2.46 1.8 2.13 -2.89c2,-2.72 4.44,-5.11 7.25,-7.11 0.98,-0.7 2.35,-0.46 3.06,0.52 0.7,0.99 0.47,2.36 -0.52,3.06 -2.43,1.72 -4.53,3.78 -6.25,6.13l-3.42 4.66c-0.34,0.47 -0.86,0.78 -1.43,0.87 -0.11,0.02 -0.22,0.03 -0.33,0.03z"/>
  <path class="fil1" d="M71.25 172.09c0.28,0.2 0.56,0.2 0.7,0.17 0.15,-0.02 0.42,-0.1 0.62,-0.37l22.64 -30.84c0.2,-0.27 0.19,-0.56 0.17,-0.7 -0.02,-0.15 -0.1,-0.42 -0.37,-0.62l-4.55 -3.34c-0.28,-0.2 -0.56,-0.2 -0.7,-0.17 -0.15,0.02 -0.42,0.1 -0.62,0.37l-22.63 30.83c-0.2,0.28 -0.2,0.56 -0.17,0.7 0.02,0.15 0.1,0.42 0.37,0.62l4.55 3.34zm0.55 4.57c-1.13,0 -2.22,-0.35 -3.14,-1.03l0 0 -4.55 -3.34c-1.15,-0.84 -1.9,-2.08 -2.11,-3.49 -0.21,-1.41 0.13,-2.81 0.97,-3.96l22.64 -30.83c0.84,-1.15 2.08,-1.9 3.48,-2.11 1.41,-0.22 2.81,0.13 3.96,0.97l4.55 3.34c1.15,0.84 1.9,2.08 2.11,3.48 0.22,1.41 -0.13,2.81 -0.97,3.96l-22.63 30.84c-0.84,1.15 -2.08,1.9 -3.49,2.11 -0.28,0.04 -0.55,0.06 -0.82,0.06z"/>
  <path class="fil1" d="M94.14 148.41c-0.45,0 -0.91,-0.14 -1.3,-0.43l-9.61 -7.05c-0.98,-0.72 -1.19,-2.09 -0.47,-3.07 0.72,-0.97 2.09,-1.19 3.06,-0.47l9.61 7.05c0.97,0.72 1.19,2.09 0.47,3.06 -0.43,0.59 -1.09,0.9 -1.77,0.9z"/>
  <path class="fil1" d="M149.48 128.07c-7.45,0 -13.51,6.06 -13.51,13.5 0,7.45 6.06,13.51 13.51,13.51 7.44,0 13.5,-6.06 13.5,-13.51 0,-7.44 -6.06,-13.5 -13.5,-13.5zm0 31.39c-9.87,0 -17.89,-8.02 -17.89,-17.89 0,-9.86 8.02,-17.89 17.89,-17.89 9.86,0 17.89,8.03 17.89,17.89 0,9.87 -8.03,17.89 -17.89,17.89z"/>
  <path class="fil1" d="M144.79 158.76c-0.87,0 -1.69,-0.52 -2.04,-1.37 -0.45,-1.12 0.09,-2.4 1.21,-2.85 9.41,-3.81 8.98,-9.42 7.31,-14.41 -2.17,-6.5 4.15,-10.91 7.8,-12.34 1.13,-0.44 2.4,0.11 2.84,1.24 0.44,1.12 -0.11,2.39 -1.24,2.83 -0.04,0.02 -1.91,0.78 -3.48,2.15 -2.31,2.02 -2.11,3.67 -1.76,4.73 3.1,9.29 -0.21,15.97 -9.83,19.86 -0.27,0.11 -0.55,0.16 -0.82,0.16z"/>
 </g>
</svg>
