<?xml version="1.0" encoding="UTF-8"?>
<!DOCTYPE svg PUBLIC "-//W3C//DTD SVG 1.1//EN" "http://www.w3.org/Graphics/SVG/1.1/DTD/svg11.dtd">
<!-- Creator: CorelDRAW 2020 (64-Bit) -->
<svg xmlns="http://www.w3.org/2000/svg" xml:space="preserve" width="0.213331in" height="0.213331in" version="1.1" style="shape-rendering:geometricPrecision; text-rendering:geometricPrecision; image-rendering:optimizeQuality; fill-rule:evenodd; clip-rule:evenodd"
viewBox="0 0 213.33 213.33"
 xmlns:xlink="http://www.w3.org/1999/xlink"
 xmlns:xodm="http://www.corel.com/coreldraw/odm/2003">
 <defs>
  <style type="text/css">
   <![CDATA[
    .str0 {stroke:#990000;stroke-width:3.33;stroke-miterlimit:10}
    .fil0 {fill:none}
    .fil1 {fill:none;fill-rule:nonzero}
   ]]>
  </style>
 </defs>
 <g id="Layer_x0020_1">
  <metadata id="CorelCorpID_0Corel-Layer"/>
  <rect class="fil0" x="-0" y="-0.01" width="213.33" height="213.33"/>
  <g id="_2029850328800">
   <path class="fil1 str0" d="M102.83 69.11l0.01 0 3.4 5.25c2.27,3.5 2.97,7.71 1.92,11.56 -1.56,5.7 -5.81,7.03 -7.42,7.33l0 6.06c1.23,-0.12 10.35,-1.35 13.21,-11.81 1.5,-5.5 0.53,-11.48 -2.67,-16.41l-3.44 -5.31 -0.01 0 -3.41 -5.24c-2.27,-3.5 -2.97,-7.72 -1.91,-11.56 1.56,-5.69 5.81,-7.03 7.42,-7.33l0 -6.06c-1.23,0.12 -10.35,1.35 -13.21,11.81 -1.5,5.5 -0.53,11.48 2.67,16.41l3.44 5.31z"/>
   <path class="fil1 str0" d="M83.33 69.11l0.01 0 3.4 5.25c2.27,3.5 2.97,7.71 1.92,11.56 -1.56,5.7 -5.81,7.03 -7.42,7.33l0 6.06c1.24,-0.12 10.35,-1.35 13.21,-11.81 1.5,-5.5 0.53,-11.48 -2.67,-16.41l-3.44 -5.31 -0.01 0 -3.4 -5.24c-2.27,-3.5 -2.97,-7.72 -1.92,-11.56 1.56,-5.69 5.81,-7.03 7.42,-7.33l0 -6.06c-1.24,0.12 -10.35,1.35 -13.21,11.81 -1.5,5.5 -0.53,11.48 2.67,16.41l3.44 5.31z"/>
   <path class="fil1 str0" d="M122.07 69.11l0.01 0 3.4 5.25c2.27,3.5 2.97,7.71 1.92,11.56 -1.56,5.7 -5.81,7.03 -7.42,7.33l0 6.06c1.23,-0.12 10.35,-1.35 13.21,-11.81 1.5,-5.5 0.53,-11.48 -2.67,-16.41l-3.44 -5.31 -0.01 0 -3.41 -5.24c-2.27,-3.5 -2.97,-7.72 -1.91,-11.56 1.56,-5.69 5.81,-7.03 7.42,-7.33l0 -6.06c-1.23,0.12 -10.35,1.35 -13.21,11.81 -1.5,5.5 -0.53,11.48 2.67,16.41l3.44 5.31z"/>
   <path class="fil1 str0" d="M69.78 121.85c5.03,0 9.11,-4.08 9.11,-9.11 0,-5.03 -4.08,-9.11 -9.11,-9.11 -5.03,0 -9.11,4.08 -9.11,9.11 0,5.03 4.08,9.11 9.11,9.11z"/>
   <path class="fil1 str0" d="M143 121.85c5.03,0 9.11,-4.08 9.11,-9.11 0,-5.03 -4.08,-9.11 -9.11,-9.11 -5.03,0 -9.11,4.08 -9.11,9.11 0,5.03 4.08,9.11 9.11,9.11z"/>
   <path class="fil1 str0" d="M159.99 124.27c1.69,1.85 2.6,5.3 3.2,7.76 5.8,3.55 9.43,6.44 9.43,10.65 0,12.53 -29.39,22.69 -65.65,22.69 -36.26,0 -65.65,-10.16 -65.65,-22.69 0,-3.69 3.63,-7.44 8.15,-10.65 0.38,-2.54 0.33,-4.8 1.91,-6.84 -11.25,5.57 -18.06,12.86 -18.06,20.84 0,17.52 32.83,31.71 73.33,31.71 40.5,0 73.33,-14.2 73.33,-31.71 0,-8.43 -7.61,-16.09 -20.01,-21.77z"/>
   <path class="fil1 str0" d="M106.91 132.04c4.15,0 7.5,-3.36 7.5,-7.5 0,-4.15 -3.36,-7.5 -7.5,-7.5 -4.14,0 -7.5,3.36 -7.5,7.5 0,4.14 3.36,7.5 7.5,7.5z"/>
   <path class="fil1 str0" d="M58.49 145.27c1.25,0.98 2.9,1.66 4.76,1.79 0.33,0.02 0.64,0.02 0.97,0 2.03,-0.13 3.52,-0.81 4.76,-1.79 0.34,-0.27 0.81,-0.27 1.15,0 1.25,0.98 2.91,1.66 4.76,1.79 0.33,0.02 0.64,0.02 0.97,0 2.17,-0.13 3.51,-0.78 4.76,-1.79 0.33,-0.27 0.83,-0.29 1.15,0 1.34,1.22 3.2,1.65 4.3,1.8l0 -12.69c0,-5.73 -4.65,-10.38 -10.38,-10.38l-12.46 0c-5.73,0 -10.38,4.65 -10.38,10.38l0 12.7c1.07,-0.13 3.01,-0.55 4.46,-1.82 0.33,-0.28 0.81,-0.27 1.15,0z"/>
   <path class="fil1 str0" d="M136.46 124.01c-5.73,0 -10.38,4.65 -10.38,10.38l0 12.73c1,-0.1 3.12,-0.48 4.69,-1.85 0.33,-0.28 0.81,-0.27 1.15,0 1.25,0.98 2.9,1.66 4.76,1.79 0.33,0.02 0.65,0.02 0.97,0 2.03,-0.13 3.52,-0.81 4.76,-1.79 0.34,-0.27 0.81,-0.27 1.15,0 1.25,0.98 2.91,1.66 4.76,1.79 0.33,0.02 0.64,0.02 0.97,0 2.17,-0.13 3.51,-0.78 4.76,-1.79 0.33,-0.27 0.83,-0.29 1.15,0 1.26,1.14 2.96,1.59 4.08,1.77l0 -12.65c0,-5.73 -4.65,-10.38 -10.38,-10.38l-12.45 0z"/>
   <path class="fil1 str0" d="M91.98 142.49l0 4.24c0.91,-0.27 1.91,-0.72 2.76,-1.46 0.33,-0.28 0.81,-0.27 1.15,0 1.25,0.98 2.9,1.66 4.76,1.79 0.33,0.02 0.65,0.02 0.97,0 2.03,-0.13 3.51,-0.81 4.76,-1.79 0.34,-0.27 0.81,-0.27 1.15,0 1.25,0.98 2.91,1.66 4.76,1.79 0.33,0.02 0.65,0.02 0.97,0 2.17,-0.13 3.51,-0.78 4.76,-1.79 0.34,-0.27 0.83,-0.29 1.15,0 0.82,0.74 1.84,1.2 2.76,1.47l0 -4.25c0,-4.72 -4.19,-8.55 -9.36,-8.55l-11.23 0c-5.17,0 -9.36,3.83 -9.36,8.55z"/>
  </g>
 </g>
</svg>
