<?xml version="1.0" encoding="UTF-8"?>
<!DOCTYPE svg PUBLIC "-//W3C//DTD SVG 1.1//EN" "http://www.w3.org/Graphics/SVG/1.1/DTD/svg11.dtd">
<!-- Creator: CorelDRAW 2020 (64-Bit) -->
<svg xmlns="http://www.w3.org/2000/svg" xml:space="preserve" width="0.426661in" height="0.426661in" version="1.1" style="shape-rendering:geometricPrecision; text-rendering:geometricPrecision; image-rendering:optimizeQuality; fill-rule:evenodd; clip-rule:evenodd"
viewBox="0 0 426.66 426.66"
 xmlns:xlink="http://www.w3.org/1999/xlink"
 xmlns:xodm="http://www.corel.com/coreldraw/odm/2003">
 <defs>
  <style type="text/css">
   <![CDATA[
    .str0 {stroke:#990000;stroke-width:4;stroke-linecap:round;stroke-linejoin:round;stroke-miterlimit:2.61313}
    .str1 {stroke:#990000;stroke-width:4;stroke-miterlimit:10}
    .fil0 {fill:none}
    .fil1 {fill:none;fill-rule:nonzero}
   ]]>
  </style>
 </defs>
 <g id="Layer_x0020_1">
  <metadata id="CorelCorpID_0Corel-Layer"/>
  <rect class="fil0" x="-0" y="-0" width="426.67" height="426.67"/>
  <path class="fil0 str0" d="M48.06 287.92l0 -140.83c0,0 -5.57,-30.43 30.26,-51.11 35.83,-20.68 109.59,-63.27 109.59,-63.27 0,0 22.03,-8.42 46.79,0l121.39 70.08c0,0 22.78,16 22.78,44.73l0 131.62c0,0 2.65,25.07 -30.75,47.97l-113.71 66.22c0,0 -20,10 -43.33,0 -23.33,-10 -120,-66.67 -120,-66.67 0,0 -23.01,-12.5 -23.01,-36.67"/>
  <g id="_2030572254944">
   <path class="fil1 str1" d="M311.56 194.65c0,-12.52 -10.15,-22.67 -22.67,-22.67 -12.52,0 -22.67,10.15 -22.67,22.67 0,12.52 10.15,22.67 22.67,22.67 12.52,0 22.67,-10.15 22.67,-22.67z"/>
   <path class="fil1 str1" d="M212.42 247.22c-9.92,0 -21.16,-1.56 -32.56,-6.23 -30.65,-12.56 -60.87,-0.14 -61.17,-0.01 -1.93,0.81 -4.16,-0.09 -4.97,-2.03 -0.81,-1.93 0.09,-4.16 2.03,-4.97 1.35,-0.57 33.45,-13.76 66.99,-0.02 30.65,12.56 60.86,0.14 61.17,0.02 1.35,-0.57 33.45,-13.76 66.99,-0.02 1.94,0.8 2.87,3.01 2.07,4.95 -0.8,1.94 -3.01,2.87 -4.95,2.07 -30.65,-12.56 -60.87,-0.14 -61.17,-0.01 -0.89,0.37 -15.18,6.24 -34.43,6.24z"/>
   <path class="fil1 str1" d="M245.37 225.65c0,0 12.26,-5.16 29.34,-5.84l-55.1 -56.48 -55.67 0c-4.98,0 -9.02,4.04 -9.02,9.01 0,4.98 4.04,9.02 9.02,9.02l44.92 0 15.9 17.4 -53.58 23.56c3.34,0.85 6.72,1.95 10.11,3.34 32.47,13.3 64.08,0 64.08,0z"/>
   <path class="fil1 str1" d="M212.42 263.33c-9.92,0 -21.16,-1.56 -32.56,-6.23 -30.65,-12.56 -60.87,-0.14 -61.17,-0.01 -1.93,0.81 -4.16,-0.09 -4.97,-2.03 -0.81,-1.93 0.09,-4.16 2.03,-4.97 1.35,-0.57 33.45,-13.76 66.99,-0.02 30.55,12.52 60.87,0.14 61.17,0.01 1.34,-0.57 33.44,-13.75 66.98,-0.01 1.94,0.8 2.87,3.01 2.07,4.95 -0.8,1.94 -3.01,2.87 -4.95,2.07 -30.65,-12.56 -60.87,-0.14 -61.17,-0.01 -0.89,0.37 -15.18,6.24 -34.43,6.24z"/>
  </g>
 </g>
</svg>
