<?xml version="1.0" encoding="UTF-8"?>
<!DOCTYPE svg PUBLIC "-//W3C//DTD SVG 1.1//EN" "http://www.w3.org/Graphics/SVG/1.1/DTD/svg11.dtd">
<!-- Creator: CorelDRAW 2020 (64-Bit) -->
<svg xmlns="http://www.w3.org/2000/svg" xml:space="preserve" width="0.213331in" height="0.213331in" version="1.1" style="shape-rendering:geometricPrecision; text-rendering:geometricPrecision; image-rendering:optimizeQuality; fill-rule:evenodd; clip-rule:evenodd"
viewBox="0 0 213.33 213.33"
 xmlns:xlink="http://www.w3.org/1999/xlink"
 xmlns:xodm="http://www.corel.com/coreldraw/odm/2003">
 <defs>
  <style type="text/css">
   <![CDATA[
    .str0 {stroke:#990000;stroke-width:4;stroke-linecap:round;stroke-linejoin:round;stroke-miterlimit:2.61313}
    .fil0 {fill:none}
    .fil1 {fill:none;fill-rule:nonzero}
    .fil2 {fill:#990000;fill-rule:nonzero}
   ]]>
  </style>
 </defs>
 <g id="Layer_x0020_1">
  <metadata id="CorelCorpID_0Corel-Layer"/>
  <rect class="fil0" x="-0" y="-0.01" width="213.33" height="213.33"/>
  <path class="fil1 str0" d="M65.26 73.46c0.61,0 1.22,0.23 1.68,0.7l3.79 3.78 9.5 -9.5"/>
  <path class="fil2 str0" d="M133.71 155.4c-3.63,0 -6.91,-1.47 -9.29,-3.85 -2.38,-2.37 -3.85,-5.66 -3.85,-9.29 0,-3.63 1.47,-6.91 3.85,-9.29 2.37,-2.37 5.66,-3.85 9.29,-3.85 3.63,0 6.91,1.47 9.29,3.85 2.37,2.38 3.85,5.66 3.85,9.29 0,3.63 -1.47,6.91 -3.85,9.29 -2.38,2.37 -5.66,3.85 -9.29,3.85zm-8.74 -4.4c2.24,2.24 5.32,3.62 8.74,3.62 3.41,0 6.5,-1.38 8.73,-3.62 2.24,-2.23 3.62,-5.32 3.62,-8.74 0,-3.41 -1.38,-6.5 -3.62,-8.73 -2.23,-2.24 -5.32,-3.62 -8.73,-3.62 -3.41,0 -6.5,1.38 -8.74,3.62 -2.24,2.23 -3.62,5.32 -3.62,8.73 0,3.41 1.38,6.5 3.62,8.74zm37.92 -14.31l-5.96 -0.7 -0.07 -0.25c-0.26,-0.91 -0.57,-1.81 -0.93,-2.69 -0.35,-0.86 -0.77,-1.71 -1.24,-2.54l-0.13 -0.23 3.72 -4.71c0.24,-0.3 0.34,-0.66 0.32,-1.02 -0.02,-0.35 -0.17,-0.7 -0.44,-0.97l-5.78 -5.77c-0.27,-0.27 -0.62,-0.41 -0.97,-0.44 -0.35,-0.02 -0.72,0.09 -1.02,0.32l-4.72 3.72 -0.22 -0.13c-0.83,-0.47 -1.69,-0.88 -2.54,-1.23 -0.87,-0.36 -1.77,-0.67 -2.69,-0.93l-0.25 -0.07 -0.71 -5.96c-0.04,-0.38 -0.22,-0.71 -0.49,-0.94 -0.26,-0.24 -0.61,-0.38 -1,-0.38l-8.16 0c-0.38,0 -0.73,0.14 -1,0.38 -0.26,0.24 -0.45,0.57 -0.49,0.94l-0.71 5.96 -0.25 0.07c-0.91,0.26 -1.81,0.57 -2.68,0.93 -0.86,0.35 -1.71,0.76 -2.54,1.23l-0.23 0.13 -4.72 -3.72c-0.3,-0.24 -0.66,-0.34 -1.02,-0.32 -0.35,0.02 -0.7,0.17 -0.97,0.44l-5.77 5.78c-0.27,0.26 -0.42,0.61 -0.44,0.97 -0.02,0.36 0.08,0.72 0.32,1.02l3.72 4.71 -0.13 0.23c-0.47,0.83 -0.88,1.69 -1.24,2.54 -0.36,0.88 -0.67,1.77 -0.93,2.69l-0.07 0.25 -5.96 0.7c-0.38,0.05 -0.71,0.23 -0.94,0.49 -0.24,0.27 -0.38,0.62 -0.38,1l0 8.16c0,0.38 0.14,0.73 0.38,1 0.24,0.27 0.57,0.45 0.94,0.49l5.96 0.7 0.07 0.26c0.26,0.91 0.57,1.81 0.93,2.68 0.35,0.86 0.77,1.71 1.24,2.54l0.13 0.23 -3.72 4.72c-0.24,0.3 -0.34,0.66 -0.32,1.02 0.02,0.35 0.17,0.7 0.44,0.97l5.77 5.77c0.27,0.27 0.62,0.42 0.97,0.44 0.35,0.02 0.72,-0.08 1.02,-0.32l4.72 -3.72 0.23 0.13c0.83,0.47 1.69,0.88 2.54,1.24 0.87,0.36 1.77,0.67 2.68,0.93l0.25 0.07 0.71 5.97c0.04,0.38 0.23,0.71 0.49,0.94 0.26,0.24 0.61,0.38 1,0.38l8.03 0c0.37,0 0.72,-0.14 0.98,-0.37 0.26,-0.23 0.45,-0.55 0.5,-0.92l0.85 -6 0.24 -0.07c0.91,-0.26 1.81,-0.57 2.68,-0.93 0.86,-0.35 1.71,-0.77 2.55,-1.24l0.22 -0.13 4.72 3.72c0.3,0.24 0.67,0.34 1.02,0.32 0.35,-0.02 0.7,-0.17 0.97,-0.44l5.78 -5.77c0.27,-0.27 0.42,-0.62 0.44,-0.98 0.02,-0.35 -0.09,-0.72 -0.32,-1.02l-3.72 -4.72 0.13 -0.23c0.47,-0.83 0.88,-1.69 1.24,-2.54 0.36,-0.87 0.67,-1.77 0.93,-2.68l0.07 -0.26 5.96 -0.7c0.38,-0.04 0.71,-0.22 0.94,-0.49 0.24,-0.26 0.38,-0.61 0.38,-1l0 -8.16c0,-0.38 -0.14,-0.73 -0.38,-1 -0.23,-0.26 -0.57,-0.44 -0.94,-0.49zm-5.35 -1.42l5.45 0.65c0.57,0.07 1.07,0.35 1.44,0.75 0.36,0.41 0.57,0.94 0.57,1.52l0 8.16c0,0.57 -0.22,1.11 -0.57,1.52 -0.36,0.41 -0.87,0.68 -1.44,0.75l-5.45 0.65c-0.25,0.85 -0.55,1.69 -0.89,2.52 -0.34,0.82 -0.72,1.63 -1.15,2.4l3.39 4.31c0.36,0.45 0.52,1 0.49,1.54 -0.03,0.54 -0.26,1.07 -0.67,1.48l-5.77 5.77c-0.41,0.41 -0.94,0.63 -1.48,0.67 -0.54,0.03 -1.09,-0.13 -1.55,-0.48l-4.3 -3.39c-0.78,0.43 -1.58,0.81 -2.41,1.15 -0.83,0.34 -1.67,0.64 -2.52,0.89l-0.78 5.5c-0.08,0.56 -0.36,1.06 -0.76,1.41 -0.4,0.35 -0.93,0.56 -1.49,0.56l-8.03 0c-0.57,0 -1.11,-0.22 -1.52,-0.58 -0.4,-0.36 -0.68,-0.86 -0.75,-1.44l-0.65 -5.45c-0.85,-0.25 -1.69,-0.54 -2.52,-0.89 -0.82,-0.34 -1.63,-0.72 -2.4,-1.15l-4.31 3.39c-0.45,0.35 -1,0.52 -1.55,0.48 -0.54,-0.03 -1.07,-0.26 -1.48,-0.66l-5.77 -5.77c-0.41,-0.41 -0.63,-0.94 -0.66,-1.48 -0.03,-0.54 0.13,-1.09 0.48,-1.55l3.39 -4.31c-0.43,-0.78 -0.81,-1.58 -1.15,-2.4 -0.34,-0.83 -0.64,-1.67 -0.89,-2.52l-5.45 -0.65c-0.57,-0.07 -1.08,-0.34 -1.44,-0.75 -0.36,-0.41 -0.58,-0.94 -0.58,-1.52l0 -8.16c0,-0.58 0.22,-1.11 0.58,-1.52 0.36,-0.41 0.86,-0.69 1.44,-0.75l5.45 -0.65c0.25,-0.85 0.54,-1.69 0.89,-2.52 0.34,-0.82 0.72,-1.62 1.15,-2.4l-3.39 -4.31c-0.36,-0.45 -0.52,-1 -0.48,-1.54 0.03,-0.54 0.26,-1.07 0.67,-1.48l5.77 -5.77c0.41,-0.41 0.94,-0.63 1.48,-0.67 0.54,-0.03 1.09,0.13 1.55,0.49l4.31 3.39c0.78,-0.43 1.58,-0.81 2.4,-1.15 0.83,-0.34 1.67,-0.64 2.52,-0.89l0.65 -5.45c0.07,-0.57 0.35,-1.07 0.75,-1.44 0.41,-0.36 0.94,-0.57 1.52,-0.57l8.16 0c0.58,0 1.11,0.22 1.52,0.57 0.41,0.36 0.69,0.87 0.75,1.44l0.65 5.45c0.85,0.25 1.69,0.55 2.52,0.89 0.82,0.34 1.62,0.72 2.4,1.15l4.3 -3.39c0.45,-0.36 1.01,-0.52 1.55,-0.49 0.54,0.04 1.07,0.26 1.48,0.67l5.77 5.77c0.41,0.41 0.63,0.94 0.67,1.48 0.03,0.54 -0.13,1.09 -0.49,1.54l-3.39 4.31c0.43,0.78 0.81,1.58 1.15,2.4 0.34,0.83 0.64,1.67 0.89,2.52z"/>
  <path class="fil2 str0" d="M93.31 43.61c0.85,0 1.62,0.34 2.17,0.9 0.56,0.56 0.9,1.33 0.9,2.17 0,0.85 -0.35,1.61 -0.9,2.17 -0.56,0.56 -1.33,0.9 -2.17,0.9 -0.85,0 -1.62,-0.35 -2.17,-0.9 -0.56,-0.56 -0.9,-1.33 -0.9,-2.17 0,-0.85 0.34,-1.62 0.9,-2.17 0.56,-0.56 1.32,-0.9 2.17,-0.9zm1.62 1.45c-0.42,-0.41 -0.99,-0.67 -1.62,-0.67 -0.63,0 -1.21,0.26 -1.62,0.67 -0.41,0.41 -0.67,0.99 -0.67,1.62 0,0.63 0.26,1.21 0.67,1.62 0.41,0.42 0.99,0.67 1.62,0.67 0.63,0 1.2,-0.26 1.62,-0.67 0.42,-0.41 0.67,-0.98 0.67,-1.62 0,-0.63 -0.26,-1.21 -0.67,-1.62zm42.96 64.1l-0.11 -0 0.01 -0.39 -0.28 0 0 -48.08c0,-2.4 -0.98,-4.57 -2.55,-6.15 -1.57,-1.57 -3.74,-2.55 -6.14,-2.55l-15.84 0 0 -1.91c0,-0.55 -0.22,-1.05 -0.58,-1.41 -0.36,-0.36 -0.86,-0.58 -1.41,-0.58l-6.93 0c-0.9,0 -1.75,-0.28 -2.46,-0.78 -0.7,-0.49 -1.26,-1.19 -1.56,-2.04 -0.5,-1.39 -1.43,-2.59 -2.63,-3.43 -1.16,-0.81 -2.57,-1.3 -4.1,-1.3 -1.53,0 -2.94,0.48 -4.11,1.3 -1.19,0.84 -2.12,2.04 -2.62,3.43 -0.3,0.85 -0.86,1.55 -1.56,2.04 -0.7,0.49 -1.56,0.78 -2.46,0.78l-6.93 0c-0.55,0 -1.05,0.22 -1.41,0.58 -0.36,0.36 -0.59,0.86 -0.59,1.41l0 1.91 -15.84 0c-2.4,0 -4.57,0.98 -6.14,2.55 -1.57,1.57 -2.55,3.75 -2.55,6.15l0 92.42c0,2.4 0.98,4.57 2.55,6.14 1.57,1.57 3.75,2.55 6.14,2.55l48.65 0 0 0.78 -48.65 0c-2.61,0 -4.98,-1.06 -6.69,-2.78 -1.72,-1.72 -2.78,-4.09 -2.78,-6.7l0 -92.42c0,-2.61 1.06,-4.98 2.78,-6.7 1.71,-1.71 4.08,-2.78 6.69,-2.78l15.06 0 0 -1.12c0,-0.77 0.31,-1.46 0.81,-1.96 0.5,-0.5 1.2,-0.81 1.96,-0.81l6.93 0c0.74,0 1.44,-0.23 2.01,-0.63 0.57,-0.4 1.03,-0.98 1.28,-1.66 0.56,-1.55 1.58,-2.88 2.91,-3.81 1.29,-0.91 2.86,-1.44 4.56,-1.44 1.69,0 3.26,0.54 4.55,1.44 1.32,0.93 2.35,2.26 2.91,3.81 0.25,0.69 0.7,1.26 1.28,1.66 0.57,0.4 1.27,0.63 2.01,0.63l6.93 0c0.77,0 1.46,0.31 1.96,0.81 0.5,0.5 0.81,1.2 0.81,1.96l0 1.12 15.06 0c2.61,0 4.98,1.06 6.7,2.78 1.71,1.72 2.78,4.08 2.78,6.7l0 48.48 -0.4 -0.01z"/>
  <path class="fil1 str0" d="M65.26 98.22c0.61,0 1.22,0.24 1.68,0.7l3.79 3.78 9.5 -9.51"/>
  <path class="fil1 str0" d="M65.26 117.48c0.61,0 1.22,0.24 1.68,0.7l3.79 3.78 9.5 -9.51"/>
  <path class="fil1 str0" d="M65.26 140.13c0.61,0 1.22,0.24 1.68,0.7l3.79 3.78 9.5 -9.51"/>
  <line class="fil0 str0" x1="97.76" y1="71.55" x2="124.94" y2= "71.55" />
  <line class="fil0 str0" x1="97.76" y1="99.3" x2="124.94" y2= "99.3" />
  <line class="fil0 str0" x1="97.76" y1="119.3" x2="112.13" y2= "119.3" />
  <line class="fil0 str0" x1="97.76" y1="140.46" x2="102.41" y2= "140.46" />
 </g>
</svg>
