<?xml version="1.0" encoding="UTF-8"?>
<!DOCTYPE svg PUBLIC "-//W3C//DTD SVG 1.1//EN" "http://www.w3.org/Graphics/SVG/1.1/DTD/svg11.dtd">
<!-- Creator: CorelDRAW 2020 (64-Bit) -->
<svg xmlns="http://www.w3.org/2000/svg" xml:space="preserve" width="0.213339in" height="0.213335in" version="1.1" style="shape-rendering:geometricPrecision; text-rendering:geometricPrecision; image-rendering:optimizeQuality; fill-rule:evenodd; clip-rule:evenodd"
viewBox="0 0 213.34 213.33"
 xmlns:xlink="http://www.w3.org/1999/xlink"
 xmlns:xodm="http://www.corel.com/coreldraw/odm/2003">
 <defs>
  <style type="text/css">
   <![CDATA[
    .str0 {stroke:#990000;stroke-width:4;stroke-linecap:round;stroke-linejoin:round;stroke-miterlimit:10}
    .str2 {stroke:#990000;stroke-width:4;stroke-linecap:round;stroke-linejoin:round;stroke-miterlimit:10;stroke-dasharray:2597.381890 23895.913386}
    .str1 {stroke:#990000;stroke-width:4;stroke-linecap:round;stroke-linejoin:round;stroke-miterlimit:10;stroke-dasharray:2597.381890 28051.724409}
    .fil0 {fill:none}
    .fil1 {fill:none;fill-rule:nonzero}
   ]]>
  </style>
 </defs>
 <g id="Layer_x0020_1">
  <metadata id="CorelCorpID_0Corel-Layer"/>
  <rect class="fil0" x="0" y="-0" width="213.33" height="213.33"/>
  <g id="_1382933340000">
   <polyline class="fil1 str0" points="76.13,170.54 76.13,60.3 137.21,60.3 137.21,97.98 "/>
   <line class="fil1 str0" x1="137.21" y1="162.3" x2="137.21" y2= "170.54" />
   <line class="fil1 str1" x1="91.28" y1="75.94" x2="123.06" y2= "75.94" />
   <line class="fil1 str1" x1="91.28" y1="87.37" x2="123.06" y2= "87.37" />
   <line class="fil1 str1" x1="91.28" y1="98.79" x2="123.06" y2= "98.79" />
   <line class="fil1 str1" x1="91.28" y1="110.21" x2="123.06" y2= "110.21" />
   <line class="fil1 str1" x1="91.28" y1="121.63" x2="123.06" y2= "121.63" />
   <line class="fil1 str1" x1="91.28" y1="133.05" x2="123.06" y2= "133.05" />
   <polyline class="fil1 str0" points="114.37,170.54 114.37,147.04 98.98,147.04 98.98,170.54 "/>
   <polyline class="fil1 str0" points="76.13,98.79 35.04,98.79 35.04,170.54 "/>
   <line class="fil1 str1" x1="63.68" y1="110.21" x2="47.5" y2= "110.21" />
   <line class="fil1 str1" x1="63.68" y1="121.63" x2="47.5" y2= "121.63" />
   <line class="fil1 str1" x1="63.68" y1="133.05" x2="47.5" y2= "133.05" />
   <line class="fil1 str1" x1="63.68" y1="144.47" x2="47.5" y2= "144.47" />
   <line class="fil1 str1" x1="63.68" y1="155.89" x2="47.5" y2= "155.89" />
   <line class="fil1 str0" x1="19.91" y1="170.54" x2="193.43" y2= "170.54" />
   <line class="fil1 str0" x1="101.04" y1="183.65" x2="175.09" y2= "183.65" />
   <line class="fil1 str0" x1="33.91" y1="183.65" x2="57.98" y2= "183.65" />
   <line class="fil1 str2" x1="72.44" y1="183.65" x2="88.98" y2= "183.65" />
   <path class="fil1 str0" d="M174.61 120.26c2.44,-1.76 4.04,-4.62 4.04,-7.86 0,-5.35 -4.34,-9.69 -9.69,-9.69 -1.33,0 -2.59,0.26 -3.74,0.75 0.36,-0.95 0.56,-1.97 0.56,-3.04 0,-4.8 -3.89,-8.7 -8.7,-8.7 -4.8,0 -8.7,3.89 -8.7,8.7 0,2.04 0.7,3.91 1.88,5.39 -0.27,-0.02 -0.54,-0.04 -0.81,-0.04 -6.26,0 -11.33,5.07 -11.33,11.33 0,3.21 1.33,6.1 3.48,8.16 -5.48,2.11 -9.38,7.42 -9.38,13.65 0,8.09 6.56,14.65 14.65,14.65 5.62,0 9.61,-3.17 12.07,-7.81 2.74,2.68 7.37,4.34 11.51,4.34 8.4,0 15.2,-6.81 15.2,-15.2 0,-6.95 -4.67,-12.8 -11.04,-14.61z"/>
   <line class="fil1 str0" x1="158.94" y1="138.32" x2="147.59" y2= "132.23" />
   <line class="fil1 str0" x1="158.93" y1="170.54" x2="158.93" y2= "109.27" />
   <polyline class="fil1 str0" points="166.86,114.76 158.93,119.7 150.17,114.76 "/>
   <line class="fil1 str0" x1="158.94" y1="138.32" x2="171.17" y2= "132.96" />
   <polyline class="fil1 str0" points="88.98,60.3 88.98,49.72 123.06,49.72 123.06,60.3 "/>
   <line class="fil1 str0" x1="106.02" y1="49.72" x2="106.02" y2= "29.69" />
  </g>
 </g>
</svg>
