<?xml version="1.0" encoding="UTF-8"?>
<!DOCTYPE svg PUBLIC "-//W3C//DTD SVG 1.1//EN" "http://www.w3.org/Graphics/SVG/1.1/DTD/svg11.dtd">
<!-- Creator: CorelDRAW 2020 (64-Bit) -->
<svg xmlns="http://www.w3.org/2000/svg" xml:space="preserve" width="0.213331in" height="0.213331in" version="1.1" style="shape-rendering:geometricPrecision; text-rendering:geometricPrecision; image-rendering:optimizeQuality; fill-rule:evenodd; clip-rule:evenodd"
viewBox="0 0 213.33 213.33"
 xmlns:xlink="http://www.w3.org/1999/xlink"
 xmlns:xodm="http://www.corel.com/coreldraw/odm/2003">
 <defs>
  <style type="text/css">
   <![CDATA[
    .str0 {stroke:#990000;stroke-width:3.33;stroke-miterlimit:10}
    .fil0 {fill:none}
    .fil1 {fill:none;fill-rule:nonzero}
   ]]>
  </style>
 </defs>
 <g id="Layer_x0020_1">
  <metadata id="CorelCorpID_0Corel-Layer"/>
  <rect class="fil0" x="-0" y="-0.01" width="213.33" height="213.33"/>
  <g id="_2030090473792">
   <path class="fil1 str0" d="M27.01 115.69c-0.46,1.06 -0.91,2.21 -1.33,3.48 -2.27,6.81 -3.95,16.88 -4,32.22l-1.98 0c-1.16,0 -2.1,0.94 -2.1,2.11l0 3.15 16.57 0 0 -3.15c0,-1.16 -0.94,-2.11 -2.1,-2.11l-1.97 0c0.02,-6.5 0.35,-11.93 0.88,-16.45 2.09,-0.5 28.66,-6.78 49.33,-6.78 19.98,0 45.47,5.86 49.04,6.71 0.53,4.54 0.87,9.99 0.89,16.52l-1.97 0c-1.16,0 -2.11,0.94 -2.11,2.11l0 3.15 16.57 0 0 -3.15c0,-1.16 -0.94,-2.11 -2.11,-2.11l-1.98 0c-0.06,-18.2 -2.4,-29.01 -5.34,-35.71l12.89 0 2.14 -11.13c0,-1.37 -1.11,-2.47 -2.48,-2.47l-46.34 0c-0.16,-2.18 -1.97,-3.89 -4.19,-3.89 -2.22,0 -4.03,1.72 -4.19,3.89l-52.89 0c-0.16,-2.18 -1.97,-3.89 -4.19,-3.89 -2.22,0 -4.03,1.72 -4.19,3.89l-15.11 0c-1.37,0 -2.48,1.11 -2.48,2.47l2.14 11.13 12.59 0z"/>
   <path class="fil1 str0" d="M102.04 100.4l22.24 -2.85c-0.31,-0.62 -0.5,-1.3 -0.54,-2.02l-21.94 3.14 0.24 1.74z"/>
   <path class="fil1 str0" d="M133.74 78.77c5.67,3.24 12.9,1.28 16.15,-4.39 3.25,-5.67 1.28,-12.9 -4.39,-16.15 -5.67,-3.24 -12.9,-1.28 -16.15,4.39 -3.24,5.67 -1.28,12.9 4.39,16.15z"/>
   <path class="fil1 str0" d="M153.3 82.01c0.04,-0.18 0.09,-0.35 0.14,-0.52 0.68,-2.12 2.7,-3.64 5,-3.64 0.31,0 0.63,0.03 0.94,0.09 1.61,0.29 2.91,1.29 3.65,2.61 0.57,1.03 0.81,2.26 0.59,3.5 -0.11,0.61 -0.69,3.19 -2.86,6.18 -0.65,0.9 -1.44,1.84 -2.41,2.77 -0.03,0.03 -0.06,0.07 -0.09,0.1 -0.04,0.03 -0.07,0.06 -0.1,0.09l0.43 -0.06c4.47,2.73 9.79,6.02 14.3,9.96 -0.95,0.85 -1.92,1.79 -2.91,2.84 -2.92,3.13 -5.87,7.2 -8.07,12.32 -2.21,5.11 -3.66,11.26 -3.65,18.33 0,4.64 0.61,9.68 1.98,15.1 0.75,2.98 3.43,4.96 6.37,4.96 0.53,0 1.07,-0.06 1.61,-0.2 3.52,-0.89 5.65,-4.46 4.76,-7.98l0 0c-1.13,-4.46 -1.58,-8.39 -1.58,-11.88 0,-5.31 1.05,-9.57 2.57,-13.12 0.88,-2.05 1.94,-3.86 3.07,-5.45 0.08,5.32 0.63,11.43 2.31,17.57 1.81,6.61 4.98,13.37 10.56,18.77 2.61,2.52 6.77,2.46 9.3,-0.15 2.52,-2.61 2.45,-6.78 -0.16,-9.3 -3.36,-3.24 -5.63,-7.72 -7.01,-12.8 -1.39,-5.05 -1.86,-10.58 -1.85,-15.37 -0,-3.68 0.26,-6.92 0.52,-9.2 0.13,-1.14 0.26,-2.05 0.36,-2.65 0.05,-0.3 0.08,-0.53 0.11,-0.67 0.01,-0.07 0.02,-0.12 0.02,-0.15 0,-0.02 0,-0.02 0,-0.02 0.07,-0.34 0.1,-0.67 0.11,-1.01 1.02,-2.74 0.85,-6.02 -2.05,-10.01 -0.8,-0.94 -1.57,-1.81 -2.33,-2.64 0.13,-0.3 0.23,-0.61 0.29,-0.94l11.65 -1.49 -0.43 -3.13 -11.07 1.58c-0,-2.74 -0.35,-5.15 -1.09,-7.29 -1.09,-3.23 -3.21,-5.8 -5.78,-7.25 -2.56,-1.47 -5.33,-1.93 -7.94,-1.93 -4.56,0.02 -8.88,1.35 -12.2,2.6 -2.15,0.82 -3.85,1.63 -4.82,2.11 -2.57,0.91 -4.55,2.63 -5.61,4.56 -1.14,2.07 -0.85,4.58 0.36,6.86 0.09,-0.07 0.19,-0.15 0.28,-0.22 2.09,-1.79 2.64,-3.53 2.73,-3.86zm19.26 -3.63c1.07,-0 2,0.13 2.74,0.37 1.11,0.39 1.77,0.84 2.42,1.85 0.3,0.47 0.58,1.13 0.81,2 -2.04,-1.54 -4.19,-2.89 -6.57,-4.2 0.2,-0.01 0.41,-0.02 0.61,-0.02z"/>
   <path class="fil1 str0" d="M128.62 99.4c2.14,0.19 4.16,0.28 6.05,0.28 0.05,0 0.1,0 0.15,0 10.36,0 17.2,-2.8 21.44,-6.24 0.41,-0.33 0.8,-0.67 1.15,-1 0.04,-0.03 0.07,-0.07 0.11,-0.1 0.67,-0.63 1.24,-1.27 1.74,-1.89 2.61,-3.23 3.23,-6.12 3.31,-6.58 0.19,-1.05 -0.03,-2.07 -0.54,-2.92 -0.6,-1 -1.61,-1.75 -2.85,-1.98 -2.26,-0.41 -4.42,1.06 -4.87,3.3l0 0c0,0 -0,0.01 -0,0.02 -0.06,0.2 -0.62,2.29 -3.07,4.39 -0.13,0.11 -0.27,0.22 -0.42,0.34 -2.61,2.05 -7.29,4.23 -16.16,4.25 -1.63,0 -3.4,-0.07 -5.31,-0.24 -2.31,-0.2 -4.35,1.51 -4.56,3.82 -0.02,0.18 -0.02,0.36 -0.01,0.54 0.03,0.74 0.25,1.43 0.61,2.03 0.67,1.09 1.83,1.87 3.22,2z"/>
  </g>
 </g>
</svg>
